<svg width="50" height="50" version="1.1" viewBox="0 0 13.2 13.2" xml:space="preserve" xmlns="http://www.w3.org/2000/svg"><path d="m6.6 0a3.3 3.3 0 0 0-2.99 1.91 3.3 3.3 0 0 0-0.309-0.015 3.3 3.3 0 0 0-3.3 3.3 3.3 3.3 0 0 0 3.3 3.3 3.3 3.3 0 0 0 0.532-0.0469 3.3 3.3 0 0 0 1.92 1.38 1.88 1.88 0 0 1 1.82-1.44 1.88 1.88 0 0 1 0.176 0.00877 1.88 1.88 0 0 1 1.7-1.09 1.88 1.88 0 0 1 1.63 0.961 3.3 3.3 0 0 0 2.13-3.08 3.3 3.3 0 0 0-3.3-3.3 3.3 3.3 0 0 0-0.305 0.0217 3.3 3.3 0 0 0-2.99-1.91z" fill="#ccc" stroke-width="0" style="paint-order:fill markers stroke"/><path d="m9.45 7.54a1.88 1.88 0 0 0-1.7 1.09 1.88 1.88 0 0 0-0.176-0.0085 1.88 1.88 0 0 0-1.88 1.88 1.88 1.88 0 0 0 1.88 1.88 1.88 1.88 0 0 0 0.302-0.0267 1.88 1.88 0 0 0 1.57 0.857 1.88 1.88 0 0 0 1.57-0.857 1.88 1.88 0 0 0 0.302 0.0267 1.88 1.88 0 0 0 1.88-1.88 1.88 1.88 0 0 0-1.88-1.88 1.88 1.88 0 0 0-0.174 0.0123 1.88 1.88 0 0 0-1.7-1.09z" fill="#f2f2f2" stroke-width="0" style="paint-order:fill markers stroke"/></svg>
