<svg width="50.1" height="49.9" version="1.1" viewBox="0 0 13.3 13.2" xml:space="preserve" xmlns="http://www.w3.org/2000/svg"><path d="m6.65-0.0235c-0.147 0-0.263 0.177-0.263 0.394v1.33c0 0.219 0.118 0.394 0.263 0.394 0.147 0 0.263-0.176 0.263-0.394v-1.33c0-0.219-0.118-0.394-0.263-0.394zm-3.19 0.869c-0.0372-0.00134-0.0726 0.00655-0.105 0.0249-0.127 0.0735-0.141 0.285-0.0325 0.474l0.665 1.16c0.109 0.19 0.298 0.282 0.424 0.209 0.127-0.0735 0.141-0.285 0.0325-0.474l-0.665-1.16c-0.0813-0.141-0.208-0.23-0.32-0.234zm6.4 0.00831c-0.112 0.00404-0.238 0.0918-0.32 0.234l-0.665 1.16c-0.109 0.19-0.094 0.4 0.0325 0.474 0.127 0.0735 0.316-0.0196 0.424-0.209l0.665-1.16c0.109-0.19 0.0945-0.4-0.032-0.474-0.0316-0.0184-0.0675-0.0263-0.105-0.0249zm-3.19 2.04-0.0155 0.00208a3.69 3.71 0 0 0-3.69 3.71 3.69 3.71 0 0 0 0.265 1.35 2.62 2.64 0 0 1 2.14-1.12 2.62 2.64 0 0 1 0.246 0.0119 2.62 2.64 0 0 1 2.38-1.52 2.62 2.64 0 0 1 2.34 1.45 3.69 3.71 0 0 0 0.0124-0.175 3.69 3.71 0 0 0-3.69-3.71zm-5.5 0.299c-0.0995-0.0017-0.183 0.0343-0.225 0.106-0.0731 0.127 0.0194 0.318 0.207 0.426l1.16 0.669c0.188 0.109 0.398 0.0946 0.471-0.0327 0.0731-0.127-0.0194-0.318-0.207-0.426l-1.16-0.669c-0.0822-0.0477-0.168-0.0719-0.246-0.0732zm11 0.0177c-0.0774 0.00132-0.163 0.0255-0.246 0.0732l-1.16 0.669c-0.188 0.109-0.28 0.3-0.207 0.426 0.0731 0.127 0.283 0.141 0.471 0.0327l1.16-0.669c0.188-0.109 0.28-0.3 0.207-0.426-0.0411-0.0716-0.126-0.107-0.225-0.106zm-0.576 3.14c-0.217 0-0.392 0.118-0.392 0.265 0 0.147 0.174 0.265 0.392 0.265h1.33c0.217 0 0.392-0.118 0.392-0.265 0-0.147-0.174-0.265-0.392-0.265zm-11.2 0.00104c-0.217 0-0.392 0.118-0.392 0.265 0 0.147 0.174 0.265 0.392 0.265h1.33c0.217 0 0.392-0.118 0.392-0.265 0-0.147-0.174-0.265-0.392-0.265zm2.09 2.41c-0.0774 0.0013-0.163 0.0255-0.246 0.0732l-1.16 0.669c-0.188 0.109-0.28 0.3-0.207 0.426 0.0731 0.127 0.283 0.141 0.471 0.0327l1.16-0.669c0.188-0.109 0.28-0.3 0.207-0.427-0.0411-0.0716-0.126-0.107-0.225-0.106z" fill="#ffc42c" style="paint-order:fill markers stroke"/><path d="m8.01 5.59a2.52 2.54 0 0 0-2.29 1.46 2.52 2.54 0 0 0-0.236-0.0115 2.52 2.54 0 0 0-2.52 2.54 2.52 2.54 0 0 0 2.52 2.54 2.52 2.54 0 0 0 0.407-0.0361 2.52 2.54 0 0 0 2.11 1.16 2.52 2.54 0 0 0 2.11-1.16 2.52 2.54 0 0 0 0.407 0.0361 2.52 2.54 0 0 0 2.52-2.54 2.52 2.54 0 0 0-2.52-2.54 2.52 2.54 0 0 0-0.233 0.0167 2.52 2.54 0 0 0-2.29-1.47z" fill="#f9f9f9" stroke-width="0" style="paint-order:fill markers stroke"/></svg>
