<svg width="50" height="50" version="1.1" viewBox="0 0 13.2 13.2" xml:space="preserve" xmlns="http://www.w3.org/2000/svg"><g stroke-width="0"><path d="m9.12 0.859c-2.45 0.0491-4.41 2.05-4.42 4.5 0 0.0567 0.00501 0.11 0.0124 0.163 0.143-0.0253 0.29-0.0396 0.439-0.0397v-5.16e-4c0.985 3e-5 1.88 0.572 2.29 1.47 0.0776-0.0091 0.156-0.0146 0.234-0.0165 1.4-1.2e-4 2.53 1.13 2.53 2.53-1e-3 0.101-0.0087 0.2-0.0217 0.3 0.946-0.211 1.81-0.723 2.45-1.47-0.03 0.0025-0.0601 0.00429-0.0902 0.00619-2.49-1e-6 -4.51-2.02-4.51-4.51 8.82e-4 -1.07 0.384-2.11 1.08-2.92zm-0.238 7.4-0.00258 0.108c0.0256 0.0187 0.0469 0.0344 0.0717 0.0526z" fill="#f6ca59" style="paint-order:fill markers stroke"/><path d="m5.05 5.58a2.53 2.53 0 0 0-2.29 1.46 2.53 2.53 0 0 0-0.237-0.0114 2.53 2.53 0 0 0-2.53 2.53 2.53 2.53 0 0 0 2.53 2.53 2.53 2.53 0 0 0 0.407-0.0359 2.53 2.53 0 0 0 2.12 1.15 2.53 2.53 0 0 0 2.12-1.15 2.53 2.53 0 0 0 0.407 0.0359 2.53 2.53 0 0 0 2.53-2.53 2.53 2.53 0 0 0-2.53-2.53 2.53 2.53 0 0 0-0.234 0.0166 2.53 2.53 0 0 0-2.29-1.47z" fill="#f9f9f9" style="paint-order:fill markers stroke"/><path d="m12.2 2.18e-4c-0.0085 0.0054 0.0042 0.206 0.0021 0.216-0.0022 0.00981-0.0982 0.185-0.0928 0.194 0.0054 0.00848 0.205-0.00424 0.215-0.00206 0.0098 0.00218 0.185 0.0987 0.194 0.0933 0.0085-0.0054-0.0042-0.206-0.0021-0.216 0.0022-0.00981 0.0987-0.185 0.0933-0.194-0.0054-0.00848-0.206 0.00424-0.216 0.00206-0.0098-0.00218-0.185-0.0987-0.194-0.0933zm-1.21 0.266c-0.017 7.71e-4 -0.166 0.305-0.178 0.317-0.0114 0.0125-0.3 0.189-0.3 0.206 7.71e-4 0.017 0.305 0.167 0.317 0.178 0.0125 0.0114 0.189 0.3 0.206 0.299 0.017-7.71e-4 0.166-0.304 0.178-0.317 0.0114-0.0125 0.3-0.189 0.3-0.206-7.71e-4 -0.017-0.305-0.166-0.317-0.178-0.0125-0.0114-0.189-0.3-0.206-0.3zm0.961 0.598c-0.0018 2.71e-5 -0.0028-3.86e-5 -0.0036 5.16e-4 -0.0247 0.0177 0.0477 0.619 0.0428 0.649-0.0049 0.03-0.265 0.577-0.248 0.602 0.0177 0.0247 0.619-0.0482 0.649-0.0433 0.03 0.00491 0.577 0.266 0.601 0.248 0.0247-0.0177-0.0477-0.619-0.0428-0.649 0.0049-0.03 0.265-0.577 0.248-0.602-0.0177-0.0247-0.619 0.0482-0.649 0.0433-0.029-0.00475-0.544-0.249-0.598-0.249z" fill="#f9f9f9" style="paint-order:fill markers stroke"/></g></svg>
