<svg width="50" height="50" version="1.1" viewBox="0 0 13.2 13.2" xml:space="preserve" xmlns="http://www.w3.org/2000/svg"><path transform="matrix(1 0 0 .999 -1.32 -1.32)" d="m7.94 1.32c-0.147 0-0.265 0.175-0.265 0.393v1.33c0 0.218 0.118 0.393 0.265 0.393s0.265-0.175 0.265-0.393v-1.33c0-0.218-0.118-0.393-0.265-0.393zm-3.2 0.861c-0.0374-0.00134-0.0732 0.0065-0.105 0.0248-0.127 0.0733-0.141 0.284-0.0326 0.473l0.665 1.15c0.109 0.189 0.299 0.282 0.426 0.208s0.141-0.284 0.0326-0.473l-0.665-1.15c-0.0817-0.141-0.209-0.229-0.321-0.233zm6.41 0c-0.112 0.00403-0.239 0.0912-0.321 0.233l-0.665 1.15c-0.109 0.189-0.0944 0.399 0.0326 0.473 0.127 0.0733 0.317-0.0198 0.426-0.208l0.665-1.15c0.109-0.189 0.0944-0.399-0.0326-0.473-0.0317-0.0183-0.0676-0.0262-0.105-0.0248zm-3.2 2.05a3.7 3.7 0 0 0-3.7 3.7 3.7 3.7 0 0 0 0.266 1.35 2.63 2.63 0 0 1 2.15-1.12 2.63 2.63 0 0 1 0.247 0.0119 2.63 2.63 0 0 1 2.39-1.52 2.63 2.63 0 0 1 2.35 1.45 3.7 3.7 0 0 0 0.0124-0.174 3.7 3.7 0 0 0-3.7-3.7zm-5.5 0.291c-0.0998-0.00169-0.185 0.0341-0.226 0.105-0.0733 0.127 0.0197 0.317 0.208 0.426l1.15 0.666c0.189 0.109 0.4 0.0944 0.473-0.0326 0.0733-0.127-0.0197-0.317-0.208-0.426l-1.15-0.666c-0.0825-0.0476-0.169-0.0716-0.247-0.0729zm11 0c-0.0776 0.00131-0.165 0.0253-0.247 0.0729l-1.15 0.666c-0.189 0.109-0.282 0.299-0.208 0.426 0.0733 0.127 0.284 0.141 0.473 0.0326l1.15-0.665c0.189-0.109 0.282-0.299 0.208-0.426-0.0412-0.0714-0.126-0.107-0.226-0.105zm-11.7 3.15c-0.218 0-0.393 0.118-0.393 0.264 0 0.147 0.176 0.265 0.393 0.265h1.33c0.218 0 0.393-0.118 0.393-0.265 0-0.147-0.176-0.264-0.393-0.264h-1.33zm11.1 0c-0.218 0-0.393 0.118-0.393 0.264 0 0.147 0.176 0.265 0.393 0.265h1.33c0.218 0 0.393-0.118 0.393-0.265 0-0.147-0.176-0.264-0.393-0.264h-1.33zm-9.01 2.41c-0.0776 0.00131-0.165 0.0253-0.247 0.0729l-1.15 0.665c-0.189 0.109-0.282 0.299-0.208 0.426 0.0733 0.127 0.284 0.141 0.473 0.0326l1.15-0.665c0.189-0.109 0.282-0.299 0.208-0.426-0.0412-0.0714-0.126-0.107-0.226-0.105z" fill="#ffc42c" stroke-width="0" style="paint-order:fill markers stroke"/><path d="m7.97 5.6a2.53 2.53 0 0 0-2.3 1.46 2.53 2.53 0 0 0-0.237-0.0114 2.53 2.53 0 0 0-2.53 2.53 2.53 2.53 0 0 0 1.94 2.45c-0.027-0.222 0.128-0.427 0.246-0.349 2.23 1.46 3-0.512 4.9-0.512 0.534-1.26e-4 1.41 0.189 1.77 0.59a2.53 2.53 0 0 0 1.27-2.18 2.53 2.53 0 0 0-2.53-2.53 2.53 2.53 0 0 0-0.234 0.0165 2.53 2.53 0 0 0-2.3-1.47zm1.12 2.6c0.672-1.59e-4 1.88 0.299 1.94 0.945 0.0024 0.296-0.139 0.243-0.276 0.201-2.45-1.34-3.24 0.553-4.94 0.553-0.527 0-1.05-0.161-1.59-0.484-0.504-0.234-0.223-0.826-0.0346-0.703 2.23 1.46 3-0.512 4.9-0.512zm0.425 1.52c0.672-1.59e-4 1.88 0.299 1.94 0.945 0.0024 0.296-0.139 0.243-0.276 0.201-2.45-1.34-3.24 0.553-4.94 0.553-0.527 0-1.05-0.161-1.59-0.484-0.504-0.234-0.223-0.826-0.0346-0.703 2.23 1.46 3-0.512 4.9-0.512zm0.581 2.13c-1.33-0.0328-2.1 1.03-3.38 1.03-0.0078 0-0.0155-9.63e-4 -0.0232-1e-3a2.53 2.53 0 0 0 1.28 0.361 2.53 2.53 0 0 0 2.12-1.15 2.53 2.53 0 0 0 0.408 0.0362 2.53 2.53 0 0 0 0.561-0.0687c-0.359-0.135-0.679-0.197-0.972-0.204z" fill="#f9f9f9" stroke-width="0" style="paint-order:fill markers stroke"/><path transform="translate(-1.39 -1.27)" d="m10.5 9.6c-0.901 2.1e-4 -1.54 0.472-2.27 0.791-0.724 0.317-1.55 0.441-2.69-0.289-0.0166 0.0162-0.0424 0.0613-0.0527 0.115-0.0211 0.11-0.00462 0.238 0.197 0.332a0.14 0.14 0 0 1 0.0134 0.00775c0.517 0.312 1.02 0.465 1.52 0.465 0.802-1.46e-4 1.4-0.453 2.14-0.767 0.733-0.312 1.61-0.448 2.85 0.221 0.0042 0.0013 0.0021 8.86e-4 0.0062 0.00207 0.0529 0.0149 0.0761 0.0171 0.078 0.0212 0.0038-0.0135 0.0113-0.037 0.0119-0.0822-0.0107-0.118-0.0743-0.224-0.188-0.326-0.114-0.103-0.277-0.194-0.463-0.268-0.373-0.147-0.835-0.222-1.15-0.222zm0.436 1.52c-0.901 2.1e-4 -1.54 0.472-2.27 0.791-0.724 0.317-1.55 0.441-2.69-0.289-0.0166 0.0162-0.0424 0.0613-0.0527 0.115-0.0211 0.11-0.00462 0.238 0.197 0.332a0.14 0.14 0 0 1 0.0134 0.00775c0.517 0.312 1.02 0.465 1.52 0.465 0.802-1.46e-4 1.4-0.454 2.14-0.768 0.733-0.312 1.61-0.448 2.85 0.221 0.0042 0.0013 0.0021 8.86e-4 0.0062 0.00207 0.0529 0.0149 0.0761 0.0176 0.078 0.0217 0.0038-0.0135 0.0113-0.037 0.0119-0.0822-0.0107-0.118-0.0743-0.224-0.188-0.326-0.114-0.103-0.277-0.194-0.463-0.268-0.373-0.147-0.835-0.223-1.15-0.223zm0.474 1.46c-0.901 2.1e-4 -1.54 0.472-2.27 0.791-0.724 0.317-1.55 0.441-2.69-0.289-0.0166 0.0162-0.0424 0.0613-0.0527 0.115-0.0211 0.11-0.00462 0.238 0.197 0.332a0.14 0.14 0 0 1 0.0134 0.00775c0.517 0.312 1.02 0.465 1.52 0.465 0.802-1.46e-4 1.4-0.454 2.14-0.768 0.733-0.312 1.61-0.448 2.85 0.221 0.0042 0.0013 0.0021 3.7e-4 0.0062 0.00155 0.0529 0.0149 0.0761 0.0176 0.078 0.0217 0.0038-0.0135 0.0108-0.037 0.0114-0.0822-0.0107-0.118-0.0737-0.224-0.187-0.326-0.114-0.103-0.277-0.194-0.463-0.268-0.373-0.147-0.835-0.223-1.15-0.223z" stroke-width=".105"/></svg>
