<svg width="50" height="50" version="1.1" viewBox="0 0 13.2 13.2" xml:space="preserve" xmlns="http://www.w3.org/2000/svg"><path d="m5.05 5.58a2.53 2.53 0 0 0-2.29 1.46 2.53 2.53 0 0 0-0.237-0.0113 2.53 2.53 0 0 0-2.53 2.53 2.53 2.53 0 0 0 1.94 2.45c-0.0269-0.221 0.127-0.426 0.246-0.349 2.23 1.45 3-0.511 4.89-0.511 0.533-1.26e-4 1.41 0.188 1.77 0.589a2.53 2.53 0 0 0 1.27-2.18 2.53 2.53 0 0 0-2.53-2.53 2.53 2.53 0 0 0-0.234 0.0165 2.53 2.53 0 0 0-2.29-1.47zm1.11 2.59c0.671-1.59e-4 1.88 0.299 1.94 0.943 0.0024 0.295-0.139 0.243-0.275 0.201-2.44-1.34-3.23 0.551-4.93 0.552-0.525 0-1.05-0.161-1.58-0.483-0.503-0.233-0.223-0.824-0.0346-0.701 2.23 1.45 3-0.511 4.89-0.511zm0.424 1.51c0.671-1.59e-4 1.88 0.299 1.94 0.943 0.0024 0.295-0.139 0.243-0.275 0.201-2.44-1.34-3.23 0.551-4.93 0.552-0.525 0-1.05-0.161-1.58-0.483-0.503-0.233-0.223-0.824-0.0346-0.701 2.23 1.45 3-0.511 4.89-0.511zm0.58 2.12c-1.33-0.0327-2.09 1.03-3.37 1.03-0.0077 0-0.0155-9.61e-4 -0.0232-9.98e-4a2.53 2.53 0 0 0 1.28 0.36 2.53 2.53 0 0 0 2.12-1.15 2.53 2.53 0 0 0 0.407 0.0361 2.53 2.53 0 0 0 0.56-0.0686c-0.358-0.135-0.678-0.197-0.97-0.204z" fill="#f9f9f9" stroke-width="0" style="paint-order:fill markers stroke"/><path d="m6.15 8.31c-0.899 2.1e-4 -1.54 0.471-2.26 0.789-0.722 0.316-1.55 0.44-2.68-0.288-0.0165 0.0161-0.0423 0.0611-0.0526 0.115-0.0211 0.11-0.00461 0.237 0.197 0.331a0.139 0.139 0 0 1 0.0134 0.00825c0.515 0.311 1.02 0.464 1.51 0.464 0.8-1.45e-4 1.4-0.452 2.14-0.766 0.731-0.311 1.6-0.447 2.84 0.22 0.00416 0.00128 0.00217 9.31e-4 0.00619 0.00206 0.0527 0.0149 0.0759 0.017 0.0779 0.0211 0.0038-0.0134 0.0113-0.037 0.0119-0.082-0.0107-0.118-0.0741-0.223-0.187-0.325-0.114-0.102-0.276-0.194-0.462-0.267-0.372-0.147-0.833-0.222-1.15-0.222zm0.435 1.52c-0.899 2.1e-4 -1.54 0.471-2.26 0.789-0.722 0.316-1.55 0.44-2.68-0.288-0.0165 0.0161-0.0423 0.0611-0.0526 0.115-0.0211 0.11-0.00461 0.237 0.197 0.331a0.139 0.139 0 0 1 0.0134 0.0077c0.515 0.311 1.02 0.464 1.51 0.464 0.8-1.45e-4 1.4-0.453 2.14-0.766 0.731-0.311 1.6-0.447 2.84 0.221 0.00416 0.0013 0.00217 4.16e-4 0.00619 0.0015 0.0527 0.0149 0.0759 0.0176 0.0779 0.0217 0.0038-0.0134 0.0113-0.037 0.0119-0.082-0.0106-0.118-0.0741-0.223-0.187-0.325-0.114-0.102-0.276-0.194-0.462-0.267-0.372-0.147-0.833-0.222-1.15-0.222zm0.473 1.46c-0.899 2.1e-4 -1.54 0.471-2.26 0.789-0.722 0.316-1.55 0.44-2.68-0.288-0.0165 0.0161-0.0423 0.0611-0.0526 0.115-0.0211 0.11-0.00461 0.237 0.197 0.331a0.139 0.139 0 0 1 0.0134 0.0077c0.515 0.311 1.02 0.464 1.51 0.464 0.8-1.46e-4 1.4-0.452 2.14-0.766 0.731-0.311 1.6-0.447 2.84 0.22 0.00416 0.0013 0.00166 4.15e-4 0.00567 0.0015 0.0527 0.0149 0.0764 0.0176 0.0784 0.0217 0.0038-0.0134 0.0108-0.037 0.0113-0.082-0.0106-0.118-0.0741-0.223-0.187-0.325-0.114-0.102-0.275-0.194-0.461-0.267-0.372-0.147-0.833-0.222-1.15-0.222z" stroke-width=".105"/><path d="m9.12 0.859c-2.45 0.0491-4.41 2.05-4.42 4.5 0 0.0567 0.00501 0.11 0.0124 0.163 0.143-0.0253 0.29-0.0396 0.439-0.0397v-5.16e-4c0.985 3e-5 1.88 0.572 2.29 1.47 0.0776-0.0091 0.156-0.0146 0.234-0.0165 1.4-1.2e-4 2.53 1.13 2.53 2.53-1e-3 0.101-0.0087 0.2-0.0217 0.3 0.946-0.211 1.81-0.723 2.45-1.47-0.03 0.0025-0.0601 0.00429-0.0902 0.00619-2.49-1e-6 -4.51-2.02-4.51-4.51 8.82e-4 -1.07 0.384-2.11 1.08-2.92zm-0.238 7.4-0.00258 0.108c0.0256 0.0187 0.0469 0.0344 0.0717 0.0526z" fill="#f6ca59" stroke-width="0" style="paint-order:fill markers stroke"/><path d="m12.2 2.18e-4c-0.0085 0.0054 0.0042 0.206 0.0021 0.216-0.0022 0.00981-0.0982 0.185-0.0928 0.194 0.0054 0.00848 0.205-0.00424 0.215-0.00206 0.0098 0.00218 0.185 0.0987 0.194 0.0933 0.0085-0.0054-0.0042-0.206-0.0021-0.216 0.0022-0.00981 0.0987-0.185 0.0933-0.194-0.0054-0.00848-0.206 0.00424-0.216 0.00206-0.0098-0.00218-0.185-0.0987-0.194-0.0933zm-1.21 0.266c-0.017 7.71e-4 -0.166 0.305-0.178 0.317-0.0114 0.0125-0.3 0.189-0.3 0.206 7.71e-4 0.017 0.305 0.167 0.317 0.178 0.0125 0.0114 0.189 0.3 0.206 0.299 0.017-7.71e-4 0.166-0.304 0.178-0.317 0.0114-0.0125 0.3-0.189 0.3-0.206-7.71e-4 -0.017-0.305-0.166-0.317-0.178-0.0125-0.0114-0.189-0.3-0.206-0.3zm0.961 0.598c-0.0018 2.71e-5 -0.0028-3.86e-5 -0.0036 5.16e-4 -0.0247 0.0177 0.0477 0.619 0.0428 0.649-0.0049 0.03-0.265 0.577-0.248 0.602 0.0177 0.0247 0.619-0.0482 0.649-0.0433 0.03 0.00491 0.577 0.266 0.601 0.248 0.0247-0.0177-0.0477-0.619-0.0428-0.649 0.0049-0.03 0.265-0.577 0.248-0.602-0.0177-0.0247-0.619 0.0482-0.649 0.0433-0.029-0.00475-0.544-0.249-0.598-0.249z" fill="#f9f9f9" stroke-width="0" style="paint-order:fill markers stroke"/></svg>
