<svg width="50" height="50" version="1.1" viewBox="0 0 13.2 13.2" xml:space="preserve" xmlns="http://www.w3.org/2000/svg"><path d="m5.47 2.05a5.58 5.58 0 0 0-5.47 5.57 5.58 5.58 0 0 0 5.58 5.58 5.58 5.58 0 0 0 4.24-1.96 5.58 5.58 0 0 1-0.112 0.0082 5.58 5.58 0 0 1-5.58-5.58 5.58 5.58 0 0 1 1.34-3.62z" fill="#f6ca59" stroke-width="0" style="paint-order:fill markers stroke"/><path transform="translate(3.63 -.706)" d="m8.5 0.706c-0.00848 0.0054 0.00424 0.206 0.00206 0.216-0.00218 0.00981-0.0982 0.185-0.0928 0.194s0.205-0.00424 0.215-0.00206c0.00981 0.00218 0.186 0.0987 0.194 0.0933 0.00848-0.0054-0.00424-0.206-0.00206-0.216 0.00218-0.00981 0.0982-0.185 0.0928-0.194-0.0054-0.00848-0.205 0.00424-0.215 0.00206-0.00981-0.00218-0.186-0.0987-0.194-0.0933zm-1.65 0.522c-0.017 7.71e-4 -0.166 0.305-0.178 0.317-0.0114 0.0125-0.3 0.189-0.3 0.206 7.71e-4 0.017 0.304 0.166 0.317 0.178 0.0125 0.0114 0.189 0.3 0.206 0.3 0.017-7.71e-4 0.166-0.304 0.178-0.317 0.0114-0.0125 0.3-0.189 0.3-0.206-7.71e-4 -0.017-0.305-0.166-0.317-0.178s-0.189-0.3-0.206-0.3zm1.47 0.667c-0.00176 2.72e-5 -0.00284 4.77e-4 -0.00361 0.00103-0.0247 0.0177 0.0477 0.619 0.0428 0.649-0.00491 0.03-0.265 0.577-0.248 0.601s0.619-0.0477 0.649-0.0428 0.577 0.265 0.601 0.248c0.0247-0.0177-0.0477-0.619-0.0428-0.649 0.00491-0.03 0.265-0.577 0.248-0.601-0.0177-0.0247-0.619 0.0477-0.649 0.0428-0.029-0.00475-0.544-0.249-0.598-0.249z" fill="#f9f9f9" stroke-width="0" style="paint-order:fill markers stroke"/></svg>
