<svg width="50" height="50" version="1.1" viewBox="0 0 13.2 13.2" xml:space="preserve" xmlns="http://www.w3.org/2000/svg"><path d="m6.61 0c-0.146 0-0.263 0.175-0.263 0.392v1.33c0 0.217 0.117 0.392 0.263 0.392 0.146 0 0.263-0.175 0.263-0.392v-1.33c0-0.217-0.117-0.392-0.263-0.392zm-3.17 0.864c-0.037-0.0013-0.0724 0.00638-0.104 0.0247-0.126 0.0731-0.14 0.283-0.0322 0.471l0.661 1.16c0.108 0.189 0.296 0.281 0.422 0.207 0.126-0.0731 0.14-0.283 0.0322-0.472l-0.661-1.16c-0.0809-0.141-0.207-0.228-0.318-0.232zm6.36 0.00828c-0.111 0.00399-0.237 0.0909-0.318 0.232l-0.661 1.16c-0.108 0.189-0.0936 0.399 0.0322 0.472 0.126 0.0731 0.314-0.0198 0.422-0.207l0.661-1.16c0.108-0.189 0.0936-0.398-0.0322-0.471-0.0314-0.0183-0.0667-0.026-0.104-0.0247zm-3.11 2-0.0154 0.0021a3.67 3.69 0 0 0-3.67 3.69 3.67 3.69 0 0 0 0.264 1.35 2.61 2.62 0 0 1 2.13-1.12 2.61 2.62 0 0 1 0.245 0.0119 2.61 2.62 0 0 1 2.37-1.52 2.61 2.62 0 0 1 2.33 1.45 3.67 3.69 0 0 0 0.0123-0.174 3.67 3.69 0 0 0-3.67-3.69zm-5.53 0.327c-0.0989-0.0017-0.183 0.0342-0.224 0.106-0.0727 0.127 0.019 0.316 0.206 0.424l1.15 0.665c0.187 0.109 0.397 0.0942 0.469-0.0324 0.0727-0.127-0.0196-0.316-0.206-0.424l-1.15-0.665c-0.0818-0.0475-0.168-0.0712-0.244-0.0725zm10.9 0.0175c-0.0769 0.0013-0.163 0.0255-0.245 0.073l-1.15 0.665c-0.187 0.109-0.279 0.298-0.206 0.425 0.0727 0.127 0.282 0.141 0.468 0.0324l1.15-0.665c0.187-0.109 0.28-0.297 0.206-0.424-0.0408-0.0712-0.125-0.107-0.224-0.106zm-0.573 3.12c-0.216 0-0.39 0.118-0.39 0.264 0 0.147 0.174 0.264 0.39 0.264h1.32c0.216 0 0.39-0.118 0.39-0.264 0-0.147-0.173-0.264-0.39-0.264zm-11.1 9.98e-4c-0.216-8e-7 -0.39 0.118-0.39 0.264s0.173 0.264 0.39 0.264h1.32c0.216 0 0.39-0.118 0.39-0.264s-0.173-0.264-0.39-0.264zm2.08 2.39c-0.0769 0.0013-0.163 0.025-0.245 0.0725l-1.15 0.665c-0.187 0.109-0.279 0.297-0.206 0.424 0.0727 0.127 0.282 0.141 0.468 0.0324l1.15-0.665c0.187-0.109 0.279-0.297 0.206-0.424-0.0408-0.0712-0.125-0.107-0.223-0.106z" fill="#ffc42c" stroke-width=".994" style="paint-order:fill markers stroke"/><path d="m8 5.59a2.51 2.52 0 0 0-2.28 1.46 2.51 2.52 0 0 0-0.235-0.0114 2.51 2.52 0 0 0-2.51 2.52 2.51 2.52 0 0 0 2.51 2.52 2.51 2.52 0 0 0 0.404-0.0361 2.51 2.52 0 0 0 2.1 1.16 2.51 2.52 0 0 0 2.1-1.16 2.51 2.52 0 0 0 0.404 0.0361 2.51 2.52 0 0 0 2.51-2.52 2.51 2.52 0 0 0-2.51-2.52 2.51 2.52 0 0 0-0.232 0.0165 2.51 2.52 0 0 0-2.28-1.47zm-1.18 4.44c0.00267-0.0015 0.444 0.873 0.444 1.13 0 0.252-0.205 0.458-0.459 0.458s-0.459-0.205-0.459-0.458c0-0.252 0.474-1.13 0.474-1.13zm2.75 0.0242c0.00267-0.0015 0.445 0.873 0.445 1.13 0 0.252-0.205 0.458-0.459 0.458s-0.459-0.205-0.459-0.458c0-0.252 0.473-1.13 0.473-1.13zm-1.56 1.51c0.00267-0.0015 0.444 0.873 0.444 1.13 0 0.254-0.205 0.458-0.459 0.458s-0.459-0.205-0.459-0.458c0-0.252 0.474-1.13 0.474-1.13z" fill="#f9f9f9" stroke-width="0" style="paint-order:fill markers stroke"/><path d="m6.81 10.4s-0.311 0.583-0.311 0.751c0 0.169 0.135 0.305 0.301 0.305h9.91e-4c0.167 0 0.301-0.137 0.301-0.305 0-0.169-0.29-0.752-0.292-0.751zm2.76 0.0196s-0.311 0.583-0.311 0.751 0.135 0.305 0.301 0.305h9.91e-4c0.167 0 0.301-0.137 0.301-0.305s-0.29-0.752-0.292-0.751zm-1.57 1.52s-0.311 0.583-0.311 0.751 0.135 0.305 0.301 0.305h9.91e-4c0.167 0 0.301-0.137 0.301-0.305s-0.29-0.752-0.292-0.751zm-2.18 0.2s-0.311 0.583-0.311 0.751 0.135 0.305 0.301 0.305h9.91e-4c0.167 0 0.301-0.137 0.301-0.305s-0.29-0.752-0.292-0.751zm5.25 0s-0.311 0.583-0.311 0.751 0.135 0.305 0.301 0.305h9.91e-4c0.167 0 0.301-0.137 0.301-0.305s-0.29-0.752-0.292-0.751z" fill="#64d2ff" stroke-width=".994" style="paint-order:fill markers stroke"/></svg>
