<svg width="50" height="50" version="1.1" viewBox="0 0 13.2 13.2" xml:space="preserve" xmlns="http://www.w3.org/2000/svg"><path d="m3.87 10.4c-1e-7 0-0.314 0.582-0.314 0.751 0 0.168 0.136 0.305 0.304 0.305 0.168 0 0.304-0.136 0.304-0.305 0-0.168-0.292-0.752-0.294-0.751zm2.75 0.0412s-0.314 0.582-0.314 0.751 0.136 0.305 0.304 0.305c0.168 0 0.304-0.136 0.304-0.305s-0.292-0.752-0.294-0.751zm-1.56 1.53s-0.314 0.582-0.314 0.751 0.136 0.305 0.304 0.305c0.168 0 0.304-0.136 0.304-0.305s-0.292-0.752-0.294-0.751zm3.11 0.191s-0.313 0.582-0.313 0.75c-1e-7 0.168 0.136 0.305 0.303 0.305 0.168 0 0.304-0.137 0.304-0.305s-0.292-0.751-0.294-0.75zm-5.32 0.00412s-0.314 0.582-0.314 0.75 0.136 0.305 0.304 0.305c0.168 0 0.304-0.136 0.304-0.305s-0.292-0.751-0.294-0.75z" fill="#64d2ff" stroke-width="0" style="paint-order:fill markers stroke"/><g stroke-width="0"><path d="m9.12 0.859c-2.45 0.0491-4.41 2.05-4.42 4.5 0 0.0567 0.00501 0.11 0.0124 0.163 0.143-0.0253 0.29-0.0396 0.439-0.0397v-5.16e-4c0.985 3e-5 1.88 0.572 2.29 1.47 0.0776-0.0091 0.156-0.0146 0.234-0.0165 1.4-1.2e-4 2.53 1.13 2.53 2.53-1e-3 0.101-0.0087 0.2-0.0217 0.3 0.946-0.211 1.81-0.723 2.45-1.47-0.03 0.0025-0.0601 0.00429-0.0902 0.00619-2.49-1e-6 -4.51-2.02-4.51-4.51 8.82e-4 -1.07 0.384-2.11 1.08-2.92zm-0.238 7.4-0.00258 0.108c0.0256 0.0187 0.0469 0.0344 0.0717 0.0526z" fill="#f6ca59" style="paint-order:fill markers stroke"/><path d="m5.05 5.58a2.53 2.53 0 0 0-2.29 1.46 2.53 2.53 0 0 0-0.237-0.0113 2.53 2.53 0 0 0-2.53 2.53 2.53 2.53 0 0 0 2.53 2.53 2.53 2.53 0 0 0 0.407-0.0361 2.53 2.53 0 0 0 2.12 1.15 2.53 2.53 0 0 0 2.12-1.15 2.53 2.53 0 0 0 0.407 0.0361 2.53 2.53 0 0 0 2.53-2.53 2.53 2.53 0 0 0-2.53-2.53 2.53 2.53 0 0 0-0.234 0.0165 2.53 2.53 0 0 0-2.29-1.47zm-1.19 4.44c0.0027-0.0015 0.447 0.873 0.447 1.13 0 0.253-0.207 0.458-0.462 0.458-0.255 0-0.462-0.205-0.462-0.458 0-0.253 0.477-1.13 0.477-1.13zm2.76 0.0242c0.0027-0.0015 0.448 0.873 0.448 1.13 0 0.253-0.207 0.458-0.462 0.458s-0.462-0.205-0.462-0.458c0-0.253 0.476-1.13 0.476-1.13zm-1.57 1.51c0.0027-0.0015 0.447 0.873 0.447 1.13s-0.207 0.458-0.462 0.458-0.462-0.205-0.462-0.458 0.477-1.13 0.477-1.13z" fill="#f9f9f9" style="paint-order:fill markers stroke"/><path transform="translate(4.15 -.962)" d="m8.05 0.962c-0.00848 0.0054 0.00424 0.206 0.00206 0.216-0.00218 0.00981-0.0982 0.185-0.0928 0.194 0.0054 0.00848 0.205-0.00424 0.215-0.00206 0.00981 0.00218 0.185 0.0987 0.194 0.0933 0.00848-0.0054-0.00424-0.206-0.00206-0.216 0.00218-0.00981 0.0987-0.185 0.0933-0.194-0.0054-0.00848-0.206 0.00424-0.216 0.00206-0.00981-0.00218-0.185-0.0987-0.194-0.0933zm-1.21 0.266c-0.017 7.71e-4 -0.166 0.305-0.178 0.317-0.0114 0.0125-0.3 0.189-0.3 0.206 7.71e-4 0.017 0.305 0.167 0.317 0.178s0.189 0.3 0.206 0.299c0.017-7.71e-4 0.166-0.304 0.178-0.317 0.0114-0.0125 0.3-0.189 0.3-0.206-7.71e-4 -0.017-0.305-0.166-0.317-0.178-0.0125-0.0114-0.189-0.3-0.206-0.3zm0.961 0.598c-0.00176 2.71e-5 -0.00284-3.86e-5 -0.00361 5.16e-4 -0.0247 0.0177 0.0477 0.619 0.0428 0.649-0.00491 0.03-0.265 0.577-0.248 0.602 0.0177 0.0247 0.619-0.0482 0.649-0.0433 0.03 0.00491 0.577 0.266 0.601 0.248 0.0247-0.0177-0.0477-0.619-0.0428-0.649 0.00491-0.03 0.265-0.577 0.247-0.602-0.0177-0.0247-0.619 0.0482-0.649 0.0433-0.029-0.00475-0.544-0.249-0.598-0.249z" fill="#f9f9f9" style="paint-order:fill markers stroke"/></g></svg>
