<svg width="50" height="50" version="1.1" viewBox="0 0 13.2 13.2" xml:space="preserve" xmlns="http://www.w3.org/2000/svg"><path d="m6.6 0c-0.146 0-0.264 0.174-0.264 0.392v1.33c0 0.217 0.118 0.392 0.264 0.392 0.146 0 0.264-0.175 0.264-0.392v-1.33c0-0.217-0.118-0.392-0.264-0.392zm-3.19 0.863c-0.0373-0.00134-0.0727 0.00705-0.104 0.0253-0.127 0.073-0.141 0.283-0.0325 0.471l0.666 1.15c0.109 0.188 0.298 0.28 0.424 0.207 0.127-0.073 0.141-0.283 0.0325-0.471l-0.666-1.15c-0.0815-0.141-0.208-0.228-0.32-0.232zm6.41 0.00826c-0.112 0.00402-0.239 0.0915-0.32 0.232l-0.665 1.15c-0.109 0.188-0.0941 0.398 0.0325 0.471 0.127 0.073 0.316-0.0197 0.424-0.208l0.665-1.15c0.109-0.188 0.0946-0.399-0.032-0.472-0.0317-0.0183-0.0676-0.0261-0.105-0.0248zm-3.2 2.04-0.015 0.00207a3.69 3.69 0 0 0-3.69 3.69 3.69 3.69 0 0 0 0.265 1.35 2.62 2.62 0 0 1 2.15-1.12 2.62 2.62 0 0 1 0.246 0.0119 2.62 2.62 0 0 1 2.38-1.52 2.62 2.62 0 0 1 2.34 1.45 3.69 3.69 0 0 0 0.0124-0.174 3.69 3.69 0 0 0-3.69-3.69zm-5.51 0.289c-0.0996-0.00169-0.184 0.0342-0.225 0.105-0.0731 0.127 0.0195 0.316 0.208 0.424l1.15 0.665c0.188 0.109 0.398 0.094 0.471-0.0325 0.0731-0.127-0.0195-0.316-0.208-0.425l-1.15-0.665c-0.0823-0.0475-0.169-0.0715-0.246-0.0728zm11 0.0176c-0.0774 0.00131-0.164 0.0253-0.246 0.0728l-1.15 0.665c-0.188 0.109-0.281 0.298-0.208 0.424 0.0731 0.127 0.283 0.141 0.471 0.0325l1.15-0.665c0.188-0.109 0.281-0.298 0.208-0.424-0.0411-0.0712-0.126-0.107-0.225-0.105zm-0.577 3.12c-0.217 0-0.392 0.118-0.392 0.264 0 0.146 0.175 0.263 0.392 0.263h1.33c0.217 0 0.392-0.117 0.392-0.263 0-0.146-0.175-0.264-0.392-0.264zm-11.1 0.00104c-0.217 0-0.392 0.118-0.392 0.264s0.175 0.263 0.392 0.263h1.33c0.217 0 0.392-0.117 0.392-0.263s-0.175-0.264-0.392-0.264zm2.1 2.4c-0.0774 0.0013-0.164 0.0253-0.246 0.0728l-1.15 0.665c-0.188 0.109-0.281 0.298-0.208 0.424 0.0731 0.127 0.283 0.141 0.471 0.0325l1.15-0.665c0.188-0.109 0.281-0.298 0.208-0.425-0.0411-0.0712-0.126-0.107-0.225-0.105z" fill="#ffc42c" stroke-width=".998" style="paint-order:fill markers stroke"/><path d="m7.95 5.64a2.52 2.52 0 0 0-2.29 1.46 2.52 2.52 0 0 0-0.236-0.0114 2.52 2.52 0 0 0-2.52 2.52 2.52 2.52 0 0 0 2.52 2.52 2.52 2.52 0 0 0 0.407-0.0361 2.52 2.52 0 0 0 2.12 1.15 2.52 2.52 0 0 0 2.12-1.15 2.52 2.52 0 0 0 0.407 0.0361 2.52 2.52 0 0 0 2.52-2.52 2.52 2.52 0 0 0-2.52-2.52 2.52 2.52 0 0 0-0.233 0.0165 2.52 2.52 0 0 0-2.29-1.47zm0.166 2.92c0.147 0 0.264 0.127 0.264 0.284v0.0933l0.00721-0.00828c0.0622-0.0712 0.17-0.0785 0.24-0.0165 0.0712 0.0621 0.0786 0.17 0.0165 0.241l-0.264 0.302v0.478l0.435-0.25 0.13-0.38c0.0305-0.0894 0.127-0.137 0.217-0.106 0.0893 0.0307 0.137 0.127 0.106 0.217l-0.00359 0.0103 0.0619-0.0356c0.137-0.0787 0.304-0.04 0.378 0.0866 0.0731 0.127 0.0224 0.292-0.114 0.371l-0.0696 0.0402 0.0222 0.00409c0.0927 0.0183 0.153 0.108 0.135 0.201-0.0181 0.0927-0.108 0.153-0.201 0.135l-0.406-0.0804-0.448 0.258 0.436 0.252 0.406-0.0804c0.0927-0.0183 0.182 0.0419 0.2 0.135 0.0181 0.0927-0.0419 0.182-0.135 0.201l-0.0222 0.0046 0.0887 0.0516c0.137 0.0787 0.188 0.244 0.115 0.37-0.0731 0.127-0.242 0.166-0.378 0.0866l-0.0804-0.0464 0.00359 0.0103c0.0305 0.0894-0.0169 0.186-0.106 0.217-0.0893 0.0307-0.186-0.0164-0.217-0.106l-0.13-0.38-0.423-0.244v0.511l0.264 0.302c0.0622 0.0712 0.0548 0.179-0.0165 0.241-0.0712 0.062-0.179 0.0546-0.24-0.0165l-0.00721-0.0082v0.0712c0 0.158-0.118 0.284-0.264 0.284s-0.264-0.127-0.264-0.284v-0.0804l-0.015 0.0171c-0.0622 0.0712-0.17 0.0785-0.24 0.0165-0.0712-0.062-0.0786-0.17-0.0165-0.241l0.272-0.311v-0.526l-0.434 0.25-0.134 0.391c-0.0305 0.0894-0.128 0.137-0.217 0.106-0.0893-0.0307-0.137-0.127-0.106-0.217l0.00721-0.0217-0.0892 0.0516c-0.137 0.0788-0.304 0.04-0.378-0.0866-0.0731-0.127-0.0224-0.292 0.114-0.371l0.0809-0.0464-0.0109-0.0026c-0.0927-0.0183-0.153-0.108-0.135-0.201 0.0181-0.0927 0.108-0.153 0.201-0.135l0.394 0.0778 0.421-0.243-0.433-0.25-0.394 0.0778c-0.0927 0.0183-0.182-0.0419-0.2-0.135-0.0181-0.0927 0.0419-0.183 0.135-0.201l0.0109-0.0021-0.0619-0.0356c-0.137-0.0787-0.187-0.244-0.114-0.371 0.0731-0.127 0.241-0.165 0.378-0.0861l0.0696 0.0402-0.00721-0.0217c-0.0305-0.0894 0.0169-0.186 0.106-0.217 0.0893-0.0307 0.186 0.0164 0.217 0.106l0.134 0.391 0.445 0.257v-0.493l-0.272-0.311c-0.0622-0.0712-0.0548-0.179 0.0165-0.241 0.0712-0.0621 0.179-0.0546 0.24 0.0165l0.015 0.0171v-0.103c0-0.158 0.118-0.284 0.264-0.284z" fill="#f9f9f9" stroke-width="0" style="paint-order:fill markers stroke"/><path d="m8.12 8.87c-0.0731 0-0.132 0.0589-0.132 0.132v0.293l-0.229-0.264c-0.024-0.0275-0.0658-0.0302-0.0933-0.00619-0.0275 0.0241-0.0302 0.0653-0.00619 0.0928l0.329 0.378v0.734l-0.636-0.367-0.163-0.475c-0.0119-0.0346-0.049-0.0526-0.0835-0.0407s-0.0531 0.0495-0.0412 0.084l0.114 0.331-0.252-0.146c-0.0634-0.0365-0.144-0.0149-0.181 0.0485-0.0365 0.0634-0.0149 0.144 0.0485 0.181l0.237 0.137-0.329 0.0645c-0.0359 7e-3 -0.0592 0.0414-0.0521 0.0773l0.00155 0.0078c0.00702 0.0359 0.042 0.0591 0.0778 0.0521l0.486-0.0954 0.635 0.366-0.636 0.367-0.487-0.0949c-0.0359-7e-3 -0.0708 0.0157-0.0778 0.0516l-0.00155 0.0083c-0.00702 0.0359 0.0162 0.0699 0.0521 0.0768l0.329 0.065-0.238 0.138c-0.0634 0.0365-0.0845 0.117-0.048 0.181 0.0365 0.0639 0.117 0.0845 0.18 0.048l0.253-0.147-0.114 0.331c-0.0119 0.0345 0.00666 0.0722 0.0412 0.084 0.0346 0.0119 0.0716-0.0067 0.0835-0.0412l0.163-0.475 0.638-0.367v0.734l-0.329 0.378c-0.024 0.0275-0.0214 0.0688 0.00619 0.0928 0.0275 0.024 0.0693 0.0214 0.0933-0.0062l0.229-0.264v0.291c0 0.0732 0.0589 0.132 0.132 0.132 0.0731 0 0.132-0.0589 0.132-0.132v-0.274l0.221 0.252c0.024 0.0275 0.0653 0.0307 0.0928 0.0067l0.00619-0.0052c0.0275-0.024 0.0302-0.0658 0.00619-0.0933l-0.326-0.374v-0.733l0.634 0.365 0.161 0.469c0.0119 0.0346 0.0495 0.0531 0.084 0.0412l0.00778-0.0026c0.0346-0.0119 0.0521-0.0495 0.0402-0.084l-0.109-0.317 0.238 0.138c0.0634 0.0365 0.144 0.0149 0.181-0.0485 0.0365-0.0634 0.0149-0.144-0.0485-0.181l-0.253-0.147 0.344-0.0666c0.0359-7e-3 0.0591-0.042 0.0521-0.0778-0.00698-0.0359-0.0415-0.0591-0.0773-0.0521l-0.493 0.0964-0.635-0.366 0.634-0.365 0.493 0.0959c0.0359 7e-3 0.0703-0.0157 0.0773-0.0516 0.00698-0.0359-0.0162-0.0709-0.0521-0.0778l-0.344-0.0671 0.252-0.146c0.0634-0.0365 0.085-0.117 0.0485-0.18-0.0365-0.0634-0.117-0.085-0.181-0.0485l-0.237 0.137 0.109-0.317c0.0119-0.0345-0.00609-0.0717-0.0407-0.0835l-0.00778-0.00309c-0.0346-0.0119-0.0722 0.00719-0.084 0.0418l-0.161 0.469-0.633 0.365v-0.732l0.326-0.374c0.024-0.0275 0.0214-0.0693-0.00619-0.0933l-0.00619-0.00519c-0.0275-0.0241-0.0687-0.0209-0.0928 0.00669l-0.221 0.252v-0.275c0-0.0732-0.0589-0.132-0.132-0.132z" fill="#64d2ff" stroke-width=".998" style="paint-order:fill markers stroke"/></svg>
