<svg width="50" height="50" version="1.1" viewBox="0 0 13.2 13.2" xml:space="preserve" xmlns="http://www.w3.org/2000/svg"><path d="m6.58 0c-0.147 0-0.265 0.176-0.265 0.392v1.33c0 0.217 0.118 0.392 0.265 0.392 0.147 0 0.265-0.176 0.265-0.392v-1.33c0-0.217-0.118-0.392-0.265-0.392zm-3.2 0.859c-0.0374-0.00134-0.073 0.00646-0.105 0.0247-0.127 0.0731-0.141 0.283-0.0326 0.472l0.663 1.15c0.109 0.189 0.299 0.281 0.424 0.207 0.127-0.0731 0.141-0.283 0.0326-0.472l-0.663-1.15c-0.0815-0.141-0.209-0.228-0.321-0.232zm6.39 0c-0.112 0.00402-0.239 0.0914-0.321 0.232l-0.663 1.15c-0.109 0.189-0.0942 0.399 0.0326 0.472 0.127 0.0731 0.317-0.0196 0.424-0.207l0.663-1.15c0.109-0.189 0.0942-0.399-0.0326-0.472-0.0317-0.0183-0.0674-0.026-0.105-0.0247zm-3.2 2.04a3.7 3.69 0 0 0-3.7 3.69 3.7 3.69 0 0 0 3.7 3.69 3.7 3.69 0 0 0 3.7-3.69 3.7 3.69 0 0 0-3.7-3.69zm-5.48 0.29c-0.0996-0.00169-0.185 0.0339-0.226 0.105-0.0731 0.127 0.0197 0.316 0.208 0.425l1.15 0.663c0.189 0.109 0.4 0.0942 0.471-0.0325 0.0731-0.127-0.0197-0.316-0.208-0.425l-1.15-0.663c-0.0823-0.0475-0.169-0.0714-0.247-0.0727zm11 0c-0.0774 0.00131-0.165 0.0251-0.247 0.0727l-1.15 0.663c-0.189 0.109-0.282 0.298-0.208 0.425 0.0731 0.127 0.284 0.141 0.471 0.0325l1.15-0.663c0.189-0.109 0.282-0.298 0.208-0.425-0.0412-0.0712-0.126-0.107-0.226-0.105zm-11.7 3.14c-0.218 0-0.393 0.118-0.393 0.264 0 0.147 0.176 0.264 0.393 0.264h1.33c0.218 0 0.393-0.118 0.393-0.264 0-0.147-0.176-0.264-0.393-0.264zm11.1 0c-0.218 0-0.393 0.118-0.393 0.264 0 0.147 0.176 0.264 0.393 0.264h1.33c0.218 0 0.393-0.118 0.393-0.264 0-0.147-0.176-0.264-0.393-0.264zm-8.99 2.4c-0.0774 0.00131-0.165 0.0251-0.247 0.0727l-1.15 0.663c-0.189 0.109-0.282 0.298-0.208 0.425 0.0731 0.127 0.284 0.141 0.471 0.0325l1.15-0.663c0.189-0.109 0.282-0.298 0.208-0.425-0.0412-0.0712-0.126-0.107-0.226-0.105zm8.22 0c-0.0996-0.00169-0.185 0.0339-0.226 0.105-0.0731 0.127 0.0197 0.316 0.208 0.425l1.15 0.663c0.189 0.109 0.4 0.0942 0.471-0.0325 0.0731-0.127-0.0197-0.316-0.208-0.425l-1.15-0.663c-0.0823-0.0475-0.169-0.0714-0.247-0.0727zm-6.46 1.73c-0.112 4e-3 -0.239 0.0914-0.321 0.232l-0.663 1.15c-0.109 0.188-0.0942 0.399 0.0326 0.472 0.127 0.0731 0.317-0.0196 0.424-0.207l0.663-1.15c0.109-0.188 0.0942-0.399-0.0326-0.472-0.0317-0.0182-0.0674-0.026-0.105-0.0247zm4.69 0c-0.0374-0.0013-0.073 0.0065-0.105 0.0247-0.127 0.0731-0.141 0.283-0.0326 0.472l0.663 1.15c0.109 0.188 0.299 0.281 0.424 0.207 0.127-0.0731 0.141-0.283 0.0326-0.472l-0.663-1.15c-0.0815-0.141-0.209-0.228-0.321-0.232zm-2.35 0.625c-0.147 0-0.265 0.176-0.265 0.392v1.33c0 0.217 0.118 0.392 0.265 0.392 0.147 0 0.265-0.176 0.265-0.392v-1.33c0-0.217-0.118-0.392-0.265-0.392z" fill="#ffc42c" stroke-width="0" style="paint-order:fill markers stroke"/></svg>
