<?xml version="1.0" encoding="UTF-8" standalone="no"?>
<svg
   width="50"
   height="50"
   version="1.1"
   viewBox="0 0 13.2 13.2"
   xml:space="preserve"
   id="svg3"
   sodipodi:docname="thunder-storm.svg"
   inkscape:version="1.3.2 (091e20e, 2023-11-25, custom)"
   xmlns:inkscape="http://www.inkscape.org/namespaces/inkscape"
   xmlns:sodipodi="http://sodipodi.sourceforge.net/DTD/sodipodi-0.dtd"
   xmlns="http://www.w3.org/2000/svg"
   xmlns:svg="http://www.w3.org/2000/svg"><defs
     id="defs3" /><sodipodi:namedview
     id="namedview3"
     pagecolor="#505050"
     bordercolor="#eeeeee"
     borderopacity="1"
     inkscape:showpageshadow="0"
     inkscape:pageopacity="0"
     inkscape:pagecheckerboard="0"
     inkscape:deskcolor="#d1d1d1"
     showborder="false"
     inkscape:zoom="8.21"
     inkscape:cx="19.54933"
     inkscape:cy="30.024361"
     inkscape:window-width="1920"
     inkscape:window-height="1017"
     inkscape:window-x="-8"
     inkscape:window-y="-8"
     inkscape:window-maximized="1"
     inkscape:current-layer="svg3" /><path
     d="M 6.5750302,0 C 6.4282082,0 6.3103511,0.17404046 6.3103511,0.39084515 V 1.7135526 c 0,0.2168047 0.1178571,0.3908452 0.2646791,0.3908452 0.1468221,0 0.2646792,-0.1740405 0.2646792,-0.3908452 V 0.39084515 C 6.8397094,0.17404046 6.7218523,0 6.5750302,0 Z M 3.3789044,0.85727358 c -0.037355,-0.001333 -0.072612,0.006464 -0.1038742,0.024664 C 3.1481841,0.95483569 3.134201,1.1643804 3.2424697,1.3523441 L 3.9066646,2.4960385 C 4.0155327,2.6840022 4.2053026,2.7764923 4.3321489,2.7028981 4.4589951,2.63 4.4729782,2.4204553 4.3647094,2.2324916 L 3.6995157,1.0887971 C 3.6179147,0.94857023 3.4907688,0.86105274 3.3789044,0.85707467 Z m 6.4022397,0 C 9.6692797,0.86128148 9.5424334,0.94857023 9.4605328,1.088996 L 8.7963379,2.2326905 C 8.6874698,2.4206542 8.702052,2.6295027 8.8288983,2.703097 8.9557446,2.7759951 9.1455146,2.6834055 9.2543825,2.4962374 L 9.9185776,1.352543 C 10.027446,1.1645793 10.012863,0.95573075 9.886017,0.8821365 9.8543554,0.86393684 9.8184988,0.85608016 9.7811441,0.85747248 Z M 6.5850181,2.8960332 A 3.6955206,3.6797126 0 0 0 2.8894975,6.5757458 3.6955206,3.6797126 0 0 0 3.1551756,7.9183436 2.626816,2.6155795 0 0 1 5.3025726,6.8044847 2.626816,2.6155795 0 0 1 5.5492736,6.8163194 2.626816,2.6155795 0 0 1 7.9363801,5.3046537 2.626816,2.6155795 0 0 1 10.283535,6.7467033 3.6955206,3.6797126 0 0 0 10.29592,6.5746518 3.6955206,3.6797126 0 0 0 6.6003995,2.8949393 Z M 1.0916767,3.1864322 C 0.99199755,3.1847514 0.90690073,3.2203452 0.86595036,3.2908565 0.79273911,3.4171601 0.88512712,3.6061183 1.0736985,3.7145207 L 2.2223064,4.3758744 C 2.4110774,4.4842767 2.621822,4.4697568 2.6947337,4.3434532 2.767945,4.2171495 2.6750576,4.0281913 2.4869854,3.9197889 L 1.3383777,3.2584352 c -0.0824,-0.047339 -0.1687954,-0.071207 -0.246701,-0.0725 z m 10.9866833,0 c -0.07751,0.0013 -0.164801,0.025161 -0.246701,0.0725 l -1.148608,0.6613537 c -0.188771,0.1084024 -0.281659,0.2973606 -0.207748,0.4236642 0.07391,0.1263037 0.283656,0.1402269 0.472427,0.032421 L 12.096338,3.7140234 C 12.285109,3.6056211 12.377996,3.4166628 12.304086,3.2903592 12.262936,3.2193507 12.178238,3.1839459 12.07836,3.1859349 Z M 0.39252421,6.3191604 C 0.17478813,6.3191604 0,6.4365134 0,6.5827074 0,6.7289014 0.17478813,6.8452599 0.39252421,6.8452599 H 1.720914 c 0.2177361,0 0.3925242,-0.117353 0.3925242,-0.2625525 0,-0.1451994 -0.1757869,-0.263547 -0.3925242,-0.263547 z m 11.08656179,0 c -0.217736,0 -0.392524,0.117353 -0.392524,0.263547 0,0.146194 0.175787,0.2625525 0.392524,0.2625525 h 1.32839 c 0.217736,0 0.392524,-0.117353 0.392524,-0.2625525 0,-0.1451994 -0.175787,-0.263547 -0.392524,-0.263547 z M 2.479994,8.7159462 c -0.077506,0.00129 -0.1648003,0.025161 -0.246701,0.0725 L 1.0846852,9.4498002 C 0.89591404,9.5582026 0.80302664,9.7471608 0.87693705,9.8734644 0.95014831,9.9997681 1.1605932,10.013691 1.3493644,9.9058857 L 2.4979721,9.2445319 C 2.6867434,9.1361296 2.7796308,8.9471714 2.7057204,8.8208677 2.6645702,8.7498592 2.5798729,8.7144544 2.479994,8.7164435 Z"
     fill="#ffc42c"
     style="stroke-width:0.996651;paint-order:fill markers stroke"
     id="path1" /><path
     d="M 7.9533591,5.5761834 C 6.9685528,5.5732964 6.0756351,6.1406389 5.6561436,7.0296315 5.577439,7.0221652 5.4983349,7.0183822 5.4194305,7.0182827 c -1.3983051,0 -2.526937,1.124929 -2.526937,2.5186464 0.0039,0.4300614 0.1178571,0.8511629 0.331598,1.2244799 l 1.0187652,-2.3593641 0.051138,2.3195441 0.6392252,0.0093 -0.6422216,1.045288 c 0.3495763,0.179192 0.7361078,0.274762 1.128632,0.279739 0.1368341,-9.95e-4 0.2726696,-0.01304 0.407506,-0.03604 0.4664347,0.713782 1.2584746,1.144839 2.1174336,1.144839 0.8549636,-1.67e-4 1.6480024,-0.431057 2.1174331,-1.144839 0.134837,0.023 0.270672,0.03504 0.407506,0.03604 0.411501,-0.0037 0.816011,-0.107515 1.178572,-0.302636 l -0.666193,-1.085108 0.639225,-0.0093 0.05114,-2.3195443 1.018766,2.3693193 c 0.196761,-0.360375 0.301634,-0.7645533 0.306628,-1.1747044 0,-1.3937174 -1.128632,-2.5186465 -2.526937,-2.5186465 -0.07811,0.00189 -0.155811,0.00737 -0.233717,0.016426 C 9.8234924,6.1387474 8.9285771,5.5683188 7.9397756,5.5683188 Z"
     fill="#f9f9f9"
     style="stroke-width:0.99715;paint-order:fill markers stroke"
     id="path2" /><path
     d="m 11.748759,8.7618231 -0.0021,2.0208899 -0.566313,0.0072 1.41828,2.349409 0.0078,0.0062 -0.405508,-1.881519 0.601271,5.15e-4 v -0.01025 z M 4.1679475,8.8204588 3.1092309,11.30924 v 0.0098 L 3.710502,11.318481 3.3049935,13.2 l 0.00829,-0.0062 1.4182809,-2.34941 -0.5663136,-0.0067 z"
     fill="#ffd400"
     style="stroke-width:0.99715;paint-order:fill markers stroke"
     id="path3" /></svg>
